<?xml version="1.0" standalone="no"?><!DOCTYPE svg PUBLIC "-//W3C//DTD SVG 1.1//EN"
        "http://www.w3.org/Graphics/SVG/1.1/DTD/svg11.dtd">
<svg t="1719912692610" class="icon" viewBox="0 0 1024 1024" version="1.1" xmlns="http://www.w3.org/2000/svg" p-id="1865"
     xmlns:xlink="http://www.w3.org/1999/xlink" width="200" height="200">
    <path d="M448.991147 95.445333l-436.309334 375.466667a40.661333 40.661333 0 0 0 0 59.008l436.224 377.301333c24.362667 22.826667 63.061333 4.693333 63.061334-29.482666V124.970667c0.128-34.133333-38.570667-52.224-62.976-29.525334z m512 0l-436.309334 375.466667a40.362667 40.362667 0 0 0-12.586666 29.525333c0 10.794667 4.181333 21.589333 12.586666 29.482667l436.224 377.301333c24.362667 22.826667 63.061333 4.693333 63.061334-29.482666V124.928c0.128-34.133333-38.570667-52.181333-62.976-29.482667z"
          fill="#ffffff" p-id="1866"></path>
</svg>