<?xml version="1.0" standalone="no"?><!DOCTYPE svg PUBLIC "-//W3C//DTD SVG 1.1//EN"
        "http://www.w3.org/Graphics/SVG/1.1/DTD/svg11.dtd">
<svg t="1719912687854" class="icon" viewBox="0 0 1024 1024" version="1.1" xmlns="http://www.w3.org/2000/svg" p-id="1675"
     xmlns:xlink="http://www.w3.org/1999/xlink" width="200" height="200">
    <path d="M575.104 95.445333l436.181333 375.381334a40.661333 40.661333 0 0 1 0 59.008L575.146667 907.221333c-24.405333 22.826667-63.104 4.693333-63.104-29.482666V124.970667c0-34.133333 38.698667-52.224 63.104-29.525334z m-512 0l436.181333 375.381334a40.362667 40.362667 0 0 1 12.629334 29.525333 40.362667 40.362667 0 0 1-12.629334 29.482667L63.146667 907.221333C38.698667 929.92 0 911.829333 0 877.738667V125.013333c0-34.176 38.698667-52.266667 63.104-29.568z"
          fill="#ffffff" p-id="1676"></path>
</svg>