<?xml version="1.0" standalone="no"?><!DOCTYPE svg PUBLIC "-//W3C//DTD SVG 1.1//EN" "http://www.w3.org/Graphics/SVG/1.1/DTD/svg11.dtd"><svg t="1719990921254" class="icon" viewBox="0 0 1024 1024" version="1.1" xmlns="http://www.w3.org/2000/svg" p-id="959" xmlns:xlink="http://www.w3.org/1999/xlink" width="200" height="200"><path d="M64 416c0 139.616 78.4 260.224 192 317.12V659.2c-76.48-50.72-128-139.84-128-243.2 0-161.28 125.504-288 275.456-288 127.232 0 236.832 91.2 267.168 217.312l0.096-0.032c4.288 17.504 7.008 35.648 8 54.272A145.184 145.184 0 0 1 744 384c81.76 0 152 69.44 152 160 0 81.568-56.96 145.952-128 157.984v64.64c108-12.384 192-107.328 192-222.624 0-123.712-96.736-224-216-224-4.64 0-9.184 0.16-13.728 0.448C690.112 172.48 559.008 64 403.456 64 216 64 64 221.6 64 416z m352 302.592c0 10.752-8.256 17.472-16 17.472s-16-6.72-16-17.472c0-13.696 5.536-32.384 15.104-53.184 3.2 6.72 6.112 13.44 8.64 19.936 6.208 16.32 8.256 27.36 8.256 33.28zM399.936 544s-19.104 23.36-38.656 56.224c-20.416 34.368-41.312 79.104-41.28 118.4 0 44.96 35.84 81.44 80 81.44 44.192 0 80-36.48 80-81.472 0-35.776-21.888-81.856-42.784-117.696A638.304 638.304 0 0 0 399.936 544z m224.128 192.064c7.744 0 16-6.72 16-17.472 0-5.888-2.016-16.96-8.256-33.28a285.824 285.824 0 0 0-8.64-19.904c-9.568 20.8-15.136 39.488-15.104 53.184 0 10.752 8.256 17.472 16 17.472z m-38.72-135.84C604.864 567.36 624 544 624 544s18.24 24.16 37.312 56.896c20.864 35.84 42.752 81.92 42.752 117.696 0 44.992-35.776 81.472-80 81.472-44.16 0-80-36.48-80-81.472 0-39.264 20.864-84 41.28-118.368zM567.424 864L512 832l-55.424 32v64L512 960l55.424-32v-64zM704 832l55.424 32v64L704 960l-55.424-32v-64L704 832z m-328.576 32L320 832l-55.424 32v64L320 960l55.424-32v-64z" p-id="960" fill="#ffffff"></path></svg>