<?xml version="1.0" standalone="no"?><!DOCTYPE svg PUBLIC "-//W3C//DTD SVG 1.1//EN" "http://www.w3.org/Graphics/SVG/1.1/DTD/svg11.dtd"><svg t="1719990947185" class="icon" viewBox="0 0 1024 1024" version="1.1" xmlns="http://www.w3.org/2000/svg" p-id="1703" xmlns:xlink="http://www.w3.org/1999/xlink" width="200" height="200"><path d="M448 351.808v-0.16H266.88l173.76-62.816-0.032-0.032a32.224 32.224 0 0 1 11.52-0.768h0.032a31.968 31.968 0 0 1 23.2 14.56 31.936 31.936 0 0 1 3.424 27.2 31.936 31.936 0 0 1-18.88 19.872 32 32 0 0 1-11.904 2.144zM128 333.76v81.888h319.36a95.52 95.52 0 0 0 70.528-29.824 95.872 95.872 0 0 0 25.6-77.984 95.744 95.744 0 0 0-44.16-69.184l-0.064-0.032a95.68 95.68 0 0 0-39.68-13.952 95.68 95.68 0 0 0-40.704 4v-0.032l-0.96 0.352-0.16 0.032L128 333.76z m0 274.176v65.728l422.592 150.368a111.936 111.936 0 0 0 89.664-205.12 112.032 112.032 0 0 0-47.488-10.88v-0.096H128z m464.32 64H314.08l261.44 92.992-0.064 0.096a47.808 47.808 0 0 0 55.296-16.672 48.064 48.064 0 0 0-1.6-58.72 47.968 47.968 0 0 0-36.8-17.568v-0.128z m144.256-312l-31.488-55.68-0.064-0.096h0.064a128 128 0 1 1 119.264 226.432c-17.6 8.64-36.928 13.12-56.544 13.088H128v-64h639.904v-0.064a63.808 63.808 0 0 0 50.688-24.864 63.968 63.968 0 0 0-82.016-94.816z" p-id="1704" fill="#ffffff"></path></svg>