<?xml version="1.0" standalone="no"?><!DOCTYPE svg PUBLIC "-//W3C//DTD SVG 1.1//EN" "http://www.w3.org/Graphics/SVG/1.1/DTD/svg11.dtd"><svg t="1719990935458" class="icon" viewBox="0 0 1024 1024" version="1.1" xmlns="http://www.w3.org/2000/svg" p-id="1331" xmlns:xlink="http://www.w3.org/1999/xlink" width="200" height="200"><path d="M960 544c0 103.616-67.84 190.816-160 216.384v-67.68c55.392-23.2 96-79.84 96-148.704 0-90.56-70.24-160-152-160-23.136 0-45.312 5.536-65.28 15.552a296.512 296.512 0 0 0-8-54.272l-0.096 0.032C640.288 219.232 530.688 128 403.456 128 253.504 128 128 254.72 128 416c0 103.36 51.52 192.48 128 243.2v73.92C142.4 676.256 64 555.648 64 416 64 221.6 216 64 403.456 64c155.552 0 286.656 108.48 326.816 256.448 4.544-0.32 9.088-0.448 13.696-0.448C863.296 320 960 420.288 960 544z m-639.968 173.12c0-15.36 4.864-32 11.52-47.52A312 312 0 0 1 368 608s21.248 29.376 35.52 61.6c7.136 16.224 12.512 33.184 12.512 47.488 0 28.128-21.44 50.912-48 50.912-26.496 0-48-22.784-48-50.88z m171.52-47.52c-6.656 15.552-11.52 32.192-11.52 47.488 0 28.128 21.504 50.912 48 50.912 26.56 0 48-22.784 48-50.88 0-14.336-5.376-31.296-12.544-47.52C549.248 637.344 528 608 528 608s-22.272 28.352-36.48 61.6z m-79.552 207.488c0-15.296 4.896-31.936 11.52-47.488A312.064 312.064 0 0 1 460 768s21.248 29.376 35.488 61.6c7.136 16.224 12.544 33.184 12.544 47.488 0 28.128-21.472 50.912-48 50.912-26.496 0-48-22.784-48-50.88z m239.552-207.488c-6.656 15.552-11.52 32.192-11.52 47.488 0 28.128 21.504 50.912 48 50.912 26.56 0 48-22.784 48-50.88 0-14.336-5.376-31.296-12.544-47.52C709.248 637.344 688 608 688 608s-22.272 28.352-36.48 61.6z m-79.04 207.488c0-15.296 4.864-31.936 11.52-47.488 14.176-33.28 36.416-61.6 36.416-61.6s21.28 29.376 35.52 61.6c7.136 16.224 12.512 33.184 12.512 47.488 0 28.128-21.44 50.912-48 50.912-26.496 0-48-22.784-48-50.88z" p-id="1332" fill="#ffffff"></path></svg>