<?xml version="1.0" standalone="no"?><!DOCTYPE svg PUBLIC "-//W3C//DTD SVG 1.1//EN" "http://www.w3.org/Graphics/SVG/1.1/DTD/svg11.dtd"><svg t="1719990928791" class="icon" viewBox="0 0 1024 1024" version="1.1" xmlns="http://www.w3.org/2000/svg" p-id="1145" xmlns:xlink="http://www.w3.org/1999/xlink" width="200" height="200"><path d="M64 416c0 164.544 108.864 302.72 256 341.28v-66.816C209.696 653.76 128 546.112 128 416c0-161.28 125.504-288 275.456-288 127.232 0 236.832 91.2 267.168 217.312l0.096-0.032c4.288 17.504 7.04 35.648 8 54.272A145.216 145.216 0 0 1 744 384c81.76 0 152 69.44 152 160 0 89.92-69.248 159.04-150.304 160H736v63.84c2.656 0.096 5.312 0.16 8 0.16 119.296 0 216-100.288 216-224s-96.704-224-216-224c-4.64 0-9.184 0.16-13.728 0.448C690.112 172.48 559.008 64 403.456 64 216 64 64 221.6 64 416z m485.376 110.24l-128 192L388.224 768h157.184l-102.016 141.28 51.872 37.44 138.688-192L670.592 704h-162.816l94.848-142.24-53.248-35.52z" p-id="1146" fill="#ffffff"></path></svg>