<?xml version="1.0" standalone="no"?><!DOCTYPE svg PUBLIC "-//W3C//DTD SVG 1.1//EN" "http://www.w3.org/Graphics/SVG/1.1/DTD/svg11.dtd"><svg t="1719991276336" class="icon" viewBox="0 0 1024 1024" version="1.1" xmlns="http://www.w3.org/2000/svg" p-id="3547" xmlns:xlink="http://www.w3.org/1999/xlink" width="200" height="200"><path d="M672.768 64l-193.450667 332.373333 73.898667 42.666667L746.666667 106.666667l-73.898667-42.666667zM222.464 837.674667l85.162667-146.346667 73.898666 42.666667L312.064 853.333333H768v85.333334H280.533333a67.2 67.2 0 0 1-58.069333-100.992z" fill="#ffffff" p-id="3548"></path><path d="M96 188.458667C159.488 78.549333 338.005333 58.026667 525.056 128L481.706667 203.093333c-60.501333-21.12-118.186667-30.890667-167.722667-30.378666-83.114667 0.853333-126.976 28.8-144.085333 58.453333-17.066667 29.568-19.413333 81.536 21.418666 153.941333 39.765333 70.485333 113.792 145.792 215.125334 204.288 101.376 58.538667 203.605333 84.992 284.501333 84.181334 83.114667-0.853333 126.976-28.842667 144.085333-58.453334 17.066667-29.610667 19.370667-81.578667-21.461333-153.984-24.32-43.178667-61.610667-88.234667-110.165333-130.090666L746.752 256c154.154667 127.018667 225.621333 291.84 162.133333 401.792-76.544 132.693333-320.597333 135.125333-545.109333 5.546667-224.426667-129.621333-344.32-342.186667-267.776-474.88z" fill="#ffffff" p-id="3549"></path></svg>